<?xml version="1.0" encoding="UTF-8"?>
<svg xmlns="http://www.w3.org/2000/svg" version="1.1" viewBox="0 0 800 200">
  <defs>
    <style>
      .cls-1 {
        fill: #00ceff;
      }

      .cls-2 {
        fill: #026aff;
      }

      .cls-3 {
        fill: #ffa306;
      }

      .cls-4 {
        fill: #05112b;
      }
    </style>
  </defs>
  <!-- Generator: Adobe Illustrator 28.6.0, SVG Export Plug-In . SVG Version: 1.2.0 Build 709)  -->
  <g>
    <g id="Layer_1">
      <g>
        <g>
          <g>
            <rect class="cls-3" x="42.6" y="41.4" width="37.4" height="37.4" transform="translate(-23.4 46.2) rotate(-35.1)"/>
            <rect class="cls-2" x="92.6" y="128.6" width="37.4" height="37.4"/>
            <rect class="cls-2" x="92.6" y="54" width="37.4" height="37.4"/>
            <rect class="cls-2" x="130" y="91.4" width="37.4" height="37.4"/>
            <polyline class="cls-1" points="130 166 130 128.6 167.4 128.6"/>
            <polyline class="cls-1" points="167.4 91.4 130 91.4 130 54"/>
            <rect class="cls-2" x="55.2" y="91.6" width="37.4" height="74.4"/>
          </g>
          <g>
            <path class="cls-4" d="M192.8,141.1v-60h33.3c7.4,0,13.7,1.2,18.9,3.5,5.1,2.3,9.1,5.7,11.7,10.1,2.7,4.4,4,9.8,4,16.1h0c0,6.5-1.3,12-4,16.6-2.7,4.5-6.6,8-11.7,10.3-5.1,2.3-11.4,3.5-18.9,3.5h-33.3ZM208.8,128.9h16.3c4.2,0,7.8-.7,10.6-2,2.9-1.3,5.1-3.3,6.6-5.9,1.5-2.6,2.2-5.9,2.2-9.9h0c0-3.9-.7-7.2-2.2-9.8-1.5-2.6-3.6-4.6-6.5-6-2.9-1.4-6.5-2-10.8-2h-16.3v35.7Z"/>
            <path class="cls-4" d="M267.7,141.1v-44.7h15.4v9.2h.2c.9-3.2,2.5-5.7,4.9-7.5,2.4-1.7,5.4-2.6,9-2.6s1.6,0,2.5.1c.8,0,1.5.2,2.1.4v12.2c-.8-.2-1.7-.3-2.6-.5-.9-.1-1.9-.2-2.9-.2-2.7,0-5,.5-6.9,1.4-2,1-3.5,2.4-4.6,4.3-1.1,1.9-1.6,4.4-1.6,7.3v20.4h-15.4Z"/>
            <path class="cls-4" d="M332.3,142.1c-5.9,0-11-.9-15.3-2.8-4.3-1.9-7.7-4.6-10.1-8.1-2.4-3.5-3.6-7.7-3.6-12.5h0c0-4.9,1.2-9,3.6-12.5,2.4-3.5,5.8-6.2,10.1-8.1s9.4-2.9,15.3-2.9,11,1,15.3,2.8c4.4,1.9,7.7,4.6,10.1,8.1,2.4,3.5,3.6,7.6,3.6,12.4h0c0,4.9-1.2,9.1-3.6,12.6-2.4,3.5-5.7,6.2-10.1,8.1-4.4,1.9-9.5,2.8-15.3,2.8ZM332.3,131.3c2.7,0,5-.5,7-1.5,2-1,3.5-2.4,4.7-4.3,1.1-1.9,1.7-4.1,1.7-6.8h0c0-2.7-.6-5-1.7-6.9-1.1-1.9-2.7-3.3-4.7-4.3-2-1-4.3-1.5-7-1.5s-5,.5-7,1.5c-2,1-3.6,2.4-4.7,4.3s-1.7,4.1-1.7,6.8h0c0,2.7.6,5,1.7,6.9,1.1,1.9,2.7,3.3,4.7,4.3,2,1,4.3,1.5,6.9,1.5Z"/>
            <path class="cls-4" d="M367.4,155.6v-59.3h15.4v8.2h.3c1.1-1.8,2.6-3.4,4.3-4.8,1.8-1.4,3.9-2.5,6.4-3.3,2.5-.8,5.2-1.2,8.3-1.2,4.8,0,8.9,1,12.5,2.9s6.3,4.6,8.3,8.2,2.9,7.6,2.9,12.3h0c0,4.8-1,8.9-2.9,12.5-1.9,3.5-4.7,6.2-8.2,8.1s-7.7,2.9-12.4,2.9-5.9-.4-8.3-1.1c-2.5-.8-4.6-1.8-6.4-3.2-1.8-1.4-3.3-3-4.3-4.8h-.3v22.7h-15.4ZM396.6,131.1c2.7,0,5.1-.5,7.2-1.5,2-1,3.6-2.4,4.7-4.3s1.6-4.1,1.6-6.6h0c0-2.6-.5-4.8-1.6-6.7-1.1-1.9-2.6-3.3-4.7-4.3-2-1-4.4-1.5-7.2-1.5s-5.2.5-7.3,1.5c-2.1,1-3.7,2.4-4.8,4.3-1.2,1.9-1.7,4-1.7,6.6h0c0,2.6.6,4.8,1.7,6.7,1.2,1.9,2.8,3.3,4.8,4.3,2.1,1,4.5,1.5,7.3,1.5Z"/>
            <path class="cls-4" d="M464.6,142.3c-6.7,0-12.4-.7-17.3-2.2-4.8-1.4-8.6-3.5-11.4-6.3-2.8-2.8-4.5-6.2-5-10.1v-.5c0,0,15.3,0,15.3,0v.4c.5,1.6,1.5,2.9,3,4,1.5,1.1,3.6,1.9,6.2,2.5,2.6.6,5.8.9,9.5.9s5.8-.3,8-.9c2.2-.6,3.9-1.4,5.1-2.5s1.8-2.4,1.8-3.9h0c0-1.9-.8-3.3-2.4-4.3-1.6-.9-4.4-1.6-8.3-2.1l-14.8-1.2c-7.4-.7-12.9-2.5-16.6-5.3s-5.5-6.7-5.5-11.8h0c0-4,1.2-7.4,3.7-10.3,2.4-2.8,5.9-5,10.4-6.5,4.5-1.6,9.8-2.3,16-2.3s11.8.7,16.3,2.2c4.5,1.4,8.1,3.5,10.8,6.2,2.6,2.7,4.3,6,4.9,9.9v.6s-15.3,0-15.3,0v-.4c-.5-1.6-1.4-2.9-2.8-4-1.3-1.1-3.2-1.9-5.4-2.4-2.3-.6-5-.8-8.3-.8s-5.7.3-7.9.8c-2.1.6-3.8,1.3-4.8,2.3-1.1,1-1.6,2.2-1.6,3.6h0c0,1.8.8,3.2,2.5,4.2,1.6.9,4.4,1.6,8.1,2l15.1,1.1c5,.5,9.1,1.5,12.4,2.9,3.2,1.4,5.6,3.3,7.2,5.6s2.4,5.2,2.4,8.6h0c0,4.1-1.2,7.7-3.7,10.6s-6,5.2-10.6,6.8c-4.6,1.6-10.2,2.4-16.8,2.4Z"/>
            <path class="cls-4" d="M528.1,141.7c-6.9,0-12-1.2-15.2-3.7-3.2-2.5-4.8-6.4-4.8-12v-19.3h-8.8v-10.5h8.8v-10.8h15.4v10.8h13.5v10.5h-13.5v17.2c0,2.6.7,4.5,2,5.6s3.6,1.6,6.7,1.6,1.7,0,2.6-.1c.8,0,1.6-.1,2.2-.2v10.2c-1.2.2-2.6.3-4.2.4s-3.2.2-4.8.2Z"/>
            <path class="cls-4" d="M570.3,142.1c-5.9,0-11-.9-15.3-2.8-4.3-1.9-7.7-4.6-10.1-8.1-2.4-3.5-3.6-7.7-3.6-12.5h0c0-4.9,1.2-9,3.6-12.5,2.4-3.5,5.8-6.2,10.1-8.1,4.3-1.9,9.4-2.9,15.3-2.9s11,1,15.3,2.8c4.4,1.9,7.7,4.6,10.1,8.1,2.4,3.5,3.6,7.6,3.6,12.4h0c0,4.9-1.2,9.1-3.6,12.6-2.4,3.5-5.7,6.2-10.1,8.1-4.4,1.9-9.5,2.8-15.3,2.8ZM570.3,131.3c2.7,0,5-.5,7-1.5s3.5-2.4,4.7-4.3c1.1-1.9,1.7-4.1,1.7-6.8h0c0-2.7-.6-5-1.7-6.9-1.1-1.9-2.7-3.3-4.7-4.3-2-1-4.3-1.5-7-1.5s-5,.5-7,1.5c-2,1-3.6,2.4-4.7,4.3-1.1,1.9-1.7,4.1-1.7,6.8h0c0,2.7.6,5,1.7,6.9,1.1,1.9,2.7,3.3,4.7,4.3s4.3,1.5,6.9,1.5Z"/>
            <path class="cls-4" d="M632.5,142.1c-5.8,0-10.9-.9-15.2-2.8-4.3-1.9-7.6-4.6-9.9-8.1-2.3-3.5-3.5-7.7-3.5-12.5h0c0-4.8,1.2-9,3.5-12.5,2.3-3.5,5.6-6.2,9.9-8.1,4.3-1.9,9.3-2.8,15.1-2.8s9.6.8,13.6,2.3c3.9,1.5,7,3.7,9.4,6.4,2.4,2.8,3.8,6,4.2,9.7v.4s-14.6,0-14.6,0v-.3c-.8-2.4-2.1-4.3-4.3-5.6-2.1-1.4-4.7-2.1-7.9-2.1s-5.1.5-7.1,1.5c-2,1-3.5,2.5-4.6,4.3-1.1,1.9-1.6,4.1-1.6,6.7h0c0,2.7.5,5,1.6,6.9,1.1,1.9,2.6,3.3,4.6,4.3s4.4,1.5,7.2,1.5,5.8-.7,7.9-2c2.1-1.3,3.5-3.2,4.2-5.7v-.4h14.8v.5c-.5,3.7-1.9,6.9-4.3,9.6-2.4,2.8-5.5,4.9-9.4,6.4-3.9,1.5-8.4,2.3-13.5,2.3Z"/>
            <path class="cls-4" d="M665.8,141.1v-60h15.4v60h-15.4ZM679.3,128.6v-14.7h2.2l21.1-17.6h18.3l-27.2,23-3.5.7-10.8,8.6ZM703.6,141.1l-18.7-20.8,10.4-9.3,26.7,30h-18.4Z"/>
          </g>
        </g>
        <g>
          <path d="M731.6,96.7v-12.4h-6.2v-3.2h16.4v3.2h-6.1v12.4h-4.1Z"/>
          <path d="M743.7,96.7v-15.6h4.9l5.6,11.1h0l5.6-11.1h4.9v15.6h-3.8v-10.4h-1.6l2.9-3.1-6.7,13.5h-2.8l-6.7-13.5,2.9,3.1h-1.6v10.4h-3.8Z"/>
        </g>
      </g>
    </g>
  </g>
</svg>